<?xml version="1.0" encoding="UTF-8"?>
<svg id="_レイヤー_1" data-name=" レイヤー 1" xmlns="http://www.w3.org/2000/svg" version="1.1" viewBox="0 0 300 376">
  <defs>
    <style>
      .cls-1 {
        fill: #fff;
        fill-rule: evenodd;
      }

      .cls-1, .cls-2, .cls-3, .cls-4 {
        stroke-width: 0px;
      }

      .cls-2 {
        fill: #000;
      }

      .cls-3 {
        fill: #002c92;
      }

      .cls-4 {
        fill: #ff000a;
      }
    </style>
  </defs>
  <g>
    <rect class="cls-3" x="83.5" y="149" width="133.9" height="14.9"/>
    <rect class="cls-3" x="83.5" y="178.8" width="133.9" height="14.9"/>
    <rect class="cls-3" x="83.5" y="208.5" width="133.9" height="14.9"/>
    <rect class="cls-4" x="83.5" y=".2" width="133.9" height="133.9"/>
    <path class="cls-1" d="M204,67.2c0,29.6-24,53.5-53.6,53.5s-53.5-24-53.5-53.5,24-53.6,53.6-53.6,53.6,24,53.6,53.6h0Z"/>
  </g>
  <g>
    <path class="cls-2" d="M8.9,265.9c0,2-1.6,3.6-3.6,3.6s-3.6-1.6-3.6-3.6,1.6-3.6,3.6-3.6,3.6,1.6,3.6,3.6Z"/>
    <rect class="cls-2" x="2.9" y="274.4" width="4.8" height="24.3"/>
    <polygon class="cls-2" points="197.8 274.4 191.2 274.4 191.2 264.7 186.3 264.7 186.3 274.4 179.6 274.4 179.6 279.2 186.3 279.2 186.3 298.7 191.2 298.7 191.2 279.2 197.8 279.2 197.8 274.4"/>
    <rect class="cls-2" x="294.4" y="257.4" width="4.8" height="41.3"/>
    <path class="cls-2" d="M255.5,274.4v15.2c0,2.3-1.9,4.3-4.3,4.3s-4.2-1.9-4.3-4.2h0v-15.2h-4.8v15.2h0c0,2.3-1.9,4.2-4.3,4.2s-4.3-1.9-4.3-4.3h0v-15.2h-4.8v15.2c0,5.1,4.1,9.1,9.1,9.1s5-1.1,6.7-2.9c1.7,1.8,4.1,2.9,6.7,2.9,5.1,0,9.1-4.1,9.1-9.1v-15.2h-4.8,0Z"/>
    <path class="cls-2" d="M211.8,274.4c-6.7,0-12.1,5.4-12.1,12.1s5.4,12.1,12.1,12.1,12.1-5.4,12.1-12.1-5.4-12.1-12.1-12.1ZM211.8,293.8c-4,0-7.3-3.3-7.3-7.3s3.3-7.3,7.3-7.3,7.3,3.3,7.3,7.3-3.3,7.3-7.3,7.3Z"/>
    <path class="cls-2" d="M157.8,265.9c0,2-1.6,3.6-3.6,3.6s-3.6-1.6-3.6-3.6,1.6-3.6,3.6-3.6,3.6,1.6,3.6,3.6Z"/>
    <rect class="cls-2" x="151.7" y="274.4" width="4.8" height="24.3"/>
    <path class="cls-2" d="M36.3,274.4c-2.7,0-5,1.1-6.7,2.9-1.7-1.8-4.1-2.9-6.7-2.9-5.1,0-9.1,4.1-9.1,9.1v15.2h4.8v-15.2c0-2.3,1.9-4.3,4.3-4.3s4.2,1.9,4.3,4.2h0v15.2h4.8v-15.2h0c0-2.3,1.9-4.2,4.3-4.2s4.3,1.9,4.3,4.3h0v15.2h4.8v-15.2c0-5.1-4.1-9.1-9.1-9.1h0Z"/>
    <path class="cls-2" d="M62.1,274.4c-6.7,0-12.1,5.4-12.1,12.1s5.4,12.1,12.1,12.1,5.3-.9,7.3-2.4v2.4h4.8v-12.1c0-6.7-5.4-12.1-12.1-12.1ZM62.1,293.8c-4,0-7.3-3.3-7.3-7.3s3.3-7.3,7.3-7.3,7.3,3.3,7.3,7.3-3.3,7.3-7.3,7.3Z"/>
    <path class="cls-2" d="M118.3,274.4c-6.7,0-12.1,5.4-12.1,12.1s5.4,12.1,12.1,12.1,5.3-.9,7.3-2.4v2.4h4.8v-12.1c0-6.7-5.4-12.1-12.1-12.1ZM118.3,293.8c-4,0-7.3-3.3-7.3-7.3s3.3-7.3,7.3-7.3,7.3,3.3,7.3,7.3-3.3,7.3-7.3,7.3Z"/>
    <path class="cls-2" d="M91.6,274.4c-2.8,0-5.3.9-7.3,2.4v-19.4h-4.8v41.3h4.8v-2.4c2,1.5,4.5,2.4,7.3,2.4,6.7,0,12.1-5.4,12.1-12.1s-5.4-12.1-12.1-12.1h0ZM91.6,293.8c-4,0-7.3-3.3-7.3-7.3s3.3-7.3,7.3-7.3,7.3,3.3,7.3,7.3-3.3,7.3-7.3,7.3Z"/>
    <path class="cls-2" d="M144.4,274.4c-1.6,0-3,.4-4.3,1v-1h-4.8v24.3h4.8v-15.2c0-2.3,1.9-4.3,4.3-4.3h2.4v-4.8h-2.4Z"/>
    <path class="cls-2" d="M289.3,284.1c-1.1-5.5-6-9.7-11.9-9.7s-6.4,1.4-8.6,3.5c-2.2,2.2-3.5,5.3-3.5,8.6,0,6.7,5.4,12.1,12.1,12.1s6.4-1.4,8.6-3.5l-3.4-3.4c-1.3,1.3-3.1,2.1-5.2,2.1-3.2,0-5.9-2-6.9-4.8h18.7c.2-.8.4-2.8,0-4.8h0ZM270.5,284.1c.4-1,.9-2,1.7-2.7,1.3-1.3,3.1-2.1,5.2-2.1,3.2,0,5.9,2,6.9,4.8h-13.7Z"/>
    <g>
      <path class="cls-2" d="M120.2,333.9c-6.7,0-12.1,5.4-12.1,12.1s5.4,12.1,12.1,12.1,5.3-.9,7.3-2.4v2.4h4.8v-12.1c0-6.7-5.4-12.1-12.1-12.1ZM120.2,353.3c-4,0-7.3-3.3-7.3-7.3s3.3-7.3,7.3-7.3,7.3,3.3,7.3,7.3-3.3,7.3-7.3,7.3Z"/>
      <path class="cls-2" d="M161.5,346c0-6.7-5.4-12.1-12.1-12.1s-5.3.9-7.3,2.4v-2.4h-4.8v41.3h4.8v-19.4c2,1.5,4.5,2.4,7.3,2.4,6.7,0,12.1-5.4,12.1-12.1h0ZM156.7,346c0,4-3.3,7.3-7.3,7.3s-7.3-3.3-7.3-7.3,3.3-7.3,7.3-7.3,7.3,3.3,7.3,7.3Z"/>
      <path class="cls-2" d="M99.3,316.9v29.2c0,4-3.3,7.3-7.3,7.3s-7.3-3.3-7.3-7.3h-4.8c0,6.7,5.4,12.1,12.1,12.1s12.1-5.4,12.1-12.1v-29.2s-4.8,0-4.8,0Z"/>
      <g>
        <path class="cls-2" d="M176.1,333.9c-6.7,0-12.1,5.4-12.1,12.1s5.4,12.1,12.1,12.1,5.3-.9,7.3-2.4v2.4h4.8v-12.1c0-6.7-5.4-12.1-12.1-12.1ZM176.1,353.3c-4,0-7.3-3.3-7.3-7.3s3.3-7.3,7.3-7.3,7.3,3.3,7.3,7.3-3.3,7.3-7.3,7.3Z"/>
        <path class="cls-2" d="M205.3,333.9c-6.7,0-12.1,5.4-12.1,12.1v12.1h4.9v-12.1c0-4,3.2-7.3,7.3-7.3s7.3,3.3,7.3,7.3v12.1h4.8v-12.1c0-6.7-5.4-12.1-12.1-12.1h0Z"/>
      </g>
    </g>
  </g>
</svg>